<?xml version="1.0" encoding="utf-8"?>
<!-- Generator: Adobe Illustrator 24.1.1, SVG Export Plug-In . SVG Version: 6.00 Build 0)  -->
<svg version="1.1" id="Layer_1" xmlns="http://www.w3.org/2000/svg" xmlns:xlink="http://www.w3.org/1999/xlink" x="0px" y="0px"
	 viewBox="0 0 512 512" style="enable-background:new 0 0 512 512;" xml:space="preserve">
<style type="text/css">
	.st0{fill:#ffffff;}
</style>
<g id="XMLID_5_">
	<path id="XMLID_10_" class="st0" d="M256,0C114.7,0,0,114.7,0,256s114.7,256,256,256s256-114.7,256-256S397.3,0,256,0z M256,76.7
		c42.8,0,76.7,33.9,76.7,76.7s-33.9,76.7-76.7,76.7s-76.7-33.9-76.7-76.7S213.2,76.7,256,76.7z M256,440.1
		c-63.8,0-120.3-33.1-153.4-82.4c0.8-50.9,102.6-79.1,153.4-79.1s152.6,28.3,153.4,79.1C376.3,407,319.8,440.1,256,440.1z"/>
</g>
</svg>
